HIERARCHY
ROOT Hips
{
    OFFSET 0.000000 0.000000 0.000000
    CHANNELS 6 Xposition Yposition Zposition Zrotation Xrotation Yrotation
    JOINT Spine
    {
        OFFSET -0.000000 14.517291 0.000000
        CHANNELS 3 Zrotation Xrotation Yrotation
        JOINT Spine1
        {
            OFFSET -0.000000 37.558300 0.000000
            CHANNELS 3 Zrotation Xrotation Yrotation
            JOINT Neck
            {
                OFFSET -0.000000 37.404057 3.400369
                CHANNELS 3 Zrotation Xrotation Yrotation
                JOINT Head
                {
                    OFFSET -0.000000 24.785618 -3.540803
                    CHANNELS 3 Zrotation Xrotation Yrotation
                    End Site
                    {
                        OFFSET -0.000000 35.408028 0.000000
                    }
                }
            }
            JOINT LeftShoulder
            {
                OFFSET 6.992933 33.973492 -0.192664
                CHANNELS 3 Zrotation Xrotation Yrotation
                JOINT LeftArm
                {
                    OFFSET 21.527611 0.000000 0.000000
                    CHANNELS 3 Zrotation Xrotation Yrotation
                    JOINT LeftForeArm
                    {
                        OFFSET 56.353916 0.000000 0.000000
                        CHANNELS 3 Zrotation Xrotation Yrotation
                        JOINT LeftHand
                        {
                            OFFSET 47.774071 0.000000 0.000000
                            CHANNELS 3 Zrotation Xrotation Yrotation
                            End Site
                            {
                                OFFSET 26.556021 0.000000 0.000000
                            }
                        }
                    }
                }
            }
            JOINT RightShoulder
            {
                OFFSET -7.065357 33.973492 -0.192664
                CHANNELS 3 Zrotation Xrotation Yrotation
                JOINT RightArm
                {
                    OFFSET -21.527611 0.000000 0.000000
                    CHANNELS 3 Zrotation Xrotation Yrotation
                    JOINT RightForeArm
                    {
                        OFFSET -56.353916 0.000000 0.000000
                        CHANNELS 3 Zrotation Xrotation Yrotation
                        JOINT RightHand
                        {
                            OFFSET -47.774071 0.000000 0.000000
                            CHANNELS 3 Zrotation Xrotation Yrotation
                            End Site
                            {
                                OFFSET -26.556021 0.000000 0.000000
                            }
                        }
                    }
                }
            }
        }
    }
    JOINT LeftUpLeg
    {
        OFFSET 17.704014 0.000000 0.000000
        CHANNELS 3 Zrotation Xrotation Yrotation
        JOINT LeftLeg
        {
            OFFSET -0.000000 -81.181816 0.000000
            CHANNELS 3 Zrotation Xrotation Yrotation
            JOINT LeftFoot
            {
                OFFSET -0.000000 -62.821102 0.000000
                CHANNELS 3 Zrotation Xrotation Yrotation
                JOINT LeftToeBase
                {
                    OFFSET -0.000000 -11.507608 26.556021
                    CHANNELS 3 Zrotation Xrotation Yrotation
                    End Site
                    {
                        OFFSET -0.000000 0.000000 7.081605
                    }
                }
            }
        }
    }
    JOINT RightUpLeg
    {
        OFFSET -17.704014 0.000000 0.000000
        CHANNELS 3 Zrotation Xrotation Yrotation
        JOINT RightLeg
        {
            OFFSET -0.000000 -81.181816 0.000000
            CHANNELS 3 Zrotation Xrotation Yrotation
            JOINT RightFoot
            {
                OFFSET -0.000000 -62.821102 0.000000
                CHANNELS 3 Zrotation Xrotation Yrotation
                JOINT RightToeBase
                {
                    OFFSET -0.000000 -11.507608 26.556021
                    CHANNELS 3 Zrotation Xrotation Yrotation
                    End Site
                    {
                        OFFSET -0.000000 0.000000 7.081605
                    }
                }
            }
        }
    }
}
MOTION
Frames:    8
Frame Time:    0.008333
-15.420326    151.508865    -102.859283    1.606433    -4.166437    38.145077    -3.696186    1.134615    -6.582049    1.025493    3.104169    -2.234068    -0.407845    -1.267887    -12.545549    10.778791    3.668734    -11.825138    5.341845    9.196728    -21.335419    -31.387602    21.421249    -50.156269    10.788191    -46.941177    -105.672798    -15.291436    -34.052490    -19.831724    1.073619    9.464141    -7.004448    31.667009    13.539464    54.579487    -3.779936    8.274231    39.624599    -28.686447    1.367473    31.570284    16.210556    -4.109075    -2.429019    -20.604481    42.132931    -17.103764    8.101656    -31.995342    53.657238    0.000000    0.000000    0.000000    -22.015108    -21.406872    -20.676130    8.573860    26.375786    -17.883919    4.805313    10.018710    -6.175213    0.000000    0.000000    0.000000    
-15.512379    151.600876    -102.759430    1.591751    -4.161094    38.753784    -3.692266    1.116716    -6.552759    1.028649    3.074662    -2.223923    -0.510990    -1.170144    -12.764843    10.872066    3.671466    -12.028561    5.322009    9.057676    -21.246372    -31.431038    21.616579    -50.220047    10.519282    -46.664486    -105.992981    -15.212847    -33.974617    -19.720263    1.127965    9.526527    -7.081733    31.705137    13.529700    54.192173    -4.045755    8.012596    39.541573    -28.635988    1.223821    31.524277    16.286602    -4.276705    -2.783964    -20.505644    42.004097    -17.287466    8.012317    -31.712395    53.406296    0.000000    0.000000    0.000000    -22.087624    -21.129711    -20.956013    8.530318    26.333530    -18.014351    4.904693    9.942422    -6.270149    0.000000    0.000000    0.000000    
-15.595898    151.680786    -102.649734    1.618880    -4.181695    39.354233    -3.629708    1.175171    -6.523578    0.909976    2.989994    -2.210697    -0.577897    -1.067058    -12.975923    10.961562    3.689505    -12.231240    5.402778    9.053586    -21.143127    -31.432577    21.776320    -50.371048    10.349272    -46.527443    -106.269005    -15.210293    -33.952652    -19.633333    1.218020    9.533957    -7.120447    31.764923    13.572954    53.707645    -4.331040    7.757133    39.529526    -28.501268    1.118345    31.489792    16.339840    -4.399892    -3.138652    -20.408234    41.881973    -17.492626    7.822089    -31.731340    53.384102    0.000000    0.000000    0.000000    -22.176273    -20.821686    -21.239456    8.497984    26.327719    -18.093397    4.990000    9.826122    -6.405822    0.000000    0.000000    0.000000    
-15.678650    151.772995    -102.538284    1.624214    -4.201372    39.942745    -3.620500    1.178248    -6.472499    0.918372    2.964450    -2.193685    -0.741210    -0.926082    -13.218821    11.115932    3.669189    -12.441693    5.393811    9.016773    -21.103178    -31.436069    21.837299    -50.408775    10.023993    -46.225548    -106.654457    -15.055668    -33.918072    -19.479609    1.255624    9.623137    -7.202974    31.811892    13.527954    53.327927    -4.573066    7.544150    39.461548    -28.401991    1.032555    31.434862    16.412971    -4.518923    -3.473883    -20.300652    41.732697    -17.711657    7.681579    -31.603905    53.272797    0.000000    0.000000    0.000000    -22.251972    -20.524328    -21.491245    8.500677    26.308409    -18.178356    5.093451    9.737693    -6.572455    0.000000    0.000000    0.000000    
-15.763700    151.851669    -102.437935    1.617477    -4.187893    40.535847    -3.636546    1.144893    -6.420467    0.952067    2.944982    -2.176728    -0.889990    -0.779296    -13.462572    11.234774    3.623482    -12.657127    5.365670    9.007232    -21.074104    -31.398304    21.941107    -50.481441    9.810441    -46.044983    -106.923653    -15.052837    -33.899910    -19.396978    1.294461    9.641732    -7.257612    31.793470    13.664289    52.854221    -5.033725    7.086909    39.451916    -28.509502    0.703925    31.436184    16.470098    -4.689660    -3.792173    -20.193163    41.615849    -17.922218    7.554027    -31.480959    53.160778    0.000000    0.000000    0.000000    -22.350943    -20.268574    -21.770296    8.503446    26.308332    -18.295330    5.182708    9.642653    -6.710344    0.000000    0.000000    0.000000    
-15.837638    151.942139    -102.338219    1.637141    -4.208474    41.126820    -3.612682    1.170740    -6.371474    0.919766    2.907359    -2.159413    -0.985205    -0.659172    -13.698793    11.313121    3.603621    -12.880060    5.370325    8.916530    -21.062042    -31.412489    22.098291    -50.483231    9.623412    -45.848995    -107.216324    -14.810749    -33.883835    -19.147718    1.359401    9.667676    -7.306434    31.868135    13.588252    52.383999    -5.136733    7.021648    39.449547    -28.256586    0.827481    31.156446    16.520828    -4.802498    -4.131021    -20.075153    41.465630    -18.094194    7.393733    -31.342522    52.984207    0.000000    0.000000    0.000000    -22.439106    -19.959677    -22.072762    8.495022    26.287766    -18.434006    5.259342    9.581489    -6.791477    0.000000    0.000000    0.000000    
-15.903557    152.020111    -102.230194    1.670237    -4.210096    41.707287    -3.651021    1.172953    -6.302500    0.970993    2.891274    -2.137734    -1.185200    -0.495075    -13.953465    11.496103    3.524617    -13.089502    5.327185    8.869066    -21.018398    -31.375938    22.244289    -50.555660    9.316382    -45.646744    -107.570068    -14.562199    -33.983021    -18.956738    1.372337    9.708807    -7.374103    31.864101    13.704110    51.927303    -5.546556    6.654309    39.457397    -28.130150    0.675357    31.036608    16.556072    -4.907326    -4.474809    -19.984388    41.303379    -18.285828    7.265047    -31.223877    52.855816    0.000000    0.000000    0.000000    -22.557577    -19.661602    -22.368671    8.516885    26.283806    -18.566381    5.323460    9.479573    -6.892922    0.000000    0.000000    0.000000    
-15.975636    152.106766    -102.135254    1.688248    -4.217877    42.286800    -3.665140    1.177193    -6.240356    0.997725    2.870440    -2.117592    -1.359756    -0.324712    -14.216540    11.676704    3.466367    -13.314469    5.325010    8.836226    -20.950356    -31.329361    22.404282    -50.670925    9.171521    -45.514683    -107.770157    -14.490000    -33.974049    -18.876041    1.396828    9.753871    -7.408548    31.960926    13.618454    51.426517    -5.700709    6.505774    39.474594    -28.159546    0.596588    30.951534    16.595684    -5.036788    -4.782344    -19.850077    41.185596    -18.522911    7.207408    -30.929358    52.653572    0.000000    0.000000    0.000000    -22.657280    -19.366693    -22.714800    8.514342    26.264582    -18.688042    5.376001    9.424969    -6.958888    0.000000    0.000000    0.000000    
